# xmcd CD database file
#
# Track frame offsets:
#	150
#	14452
#	27026
#	42446
#	55452
#	72303
#	85109
#	100835
#	115585
#	131018
#
# Disc length: 1976 seconds
#
# Revision: 0
# Processed by: cddbd v1.5.1PL0 Copyright (c) Steve Scherf et al.
# Submitted via: CDex 1.51
#
DISCID=7f07b60a
DTITLE=John Story - One Empty Swing
DYEAR=1900
DGENRE=Country
TTITLE0=Makni' It
TTITLE1=Progress Of Man
TTITLE2=What Sundown Does to You
TTITLE3=Whiskey Into Water
TTITLE4=One Empty Swing
TTITLE5=This Is Where I Get Off
TTITLE6=Before I Love You Anymore
TTITLE7=It Seemed Like The Right Thing To Do
TTITLE8=Send The Angels Down
TTITLE9=Even The Jikebox Cried
EXTD=
EXTT0=
EXTT1=
EXTT2=
EXTT3=
EXTT4=
EXTT5=
EXTT6=
EXTT7=
EXTT8=
EXTT9=
PLAYORDER=
